<svg xmlns="http://www.w3.org/2000/svg" xmlns:xlink="http://www.w3.org/1999/xlink" viewBox="0 0 500 500">
  <defs>
    <radialGradient id="a" data-name="Unbenannter Verlauf 6" cx="1015.009" cy="1207.3506" r="28.6654" gradientTransform="matrix(-11.7467, 3.3128, -2.3868, -8.4629, 15310.612, 7088.172)" gradientUnits="userSpaceOnUse">
      <stop offset="0" stop-color="#ff005f"/>
      <stop offset="1" stop-color="#fc01d8"/>
    </radialGradient>
    <radialGradient id="b" data-name="Unbenannter Verlauf 2" cx="934.1279" cy="1023.7527" r="26.1758" gradientTransform="translate(-16428.5364 14781.4387) rotate(-90) scale(15.2473 16.1771)" gradientUnits="userSpaceOnUse">
      <stop offset="0" stop-color="#fc0"/>
      <stop offset="0.1242" stop-color="#fc0"/>
      <stop offset="0.5672" stop-color="#fe4a05"/>
      <stop offset="0.6942" stop-color="#ff0f3f"/>
      <stop offset="1" stop-color="#fe0657" stop-opacity="0"/>
    </radialGradient>
    <radialGradient id="c" data-name="Unbenannter Verlauf 3" cx="909.8941" cy="923.1262" r="36.9451" gradientTransform="matrix(2.549, -4.3919, 5.7178, 3.3185, -7333.3079, 1459.0472)" gradientUnits="userSpaceOnUse">
      <stop offset="0" stop-color="#fc0"/>
      <stop offset="1" stop-color="#fc0" stop-opacity="0"/>
    </radialGradient>
    <radialGradient id="d" data-name="Unbenannter Verlauf 4" cx="951.5618" cy="679.3071" r="36.7197" gradientTransform="matrix(-9.0667, 2.553, -0.8696, -3.0891, 9268.6593, -332.3101)" gradientUnits="userSpaceOnUse">
      <stop offset="0" stop-color="#780cff"/>
      <stop offset="1" stop-color="#820bff" stop-opacity="0"/>
    </radialGradient>
  </defs>
  <g>
    <g>
      <path d="M0,0V500H500V0Z" style="fill: url(#a)"/>
      <path d="M0,0V500H500V0Z" style="fill: url(#b)"/>
      <path d="M0,0V500H500V0Z" style="fill: url(#c)"/>
      <path d="M0,0V500H500V0Z" style="fill: url(#d)"/>
    </g>
    <g>
      <path d="M250,119.8492c42.39,0,47.4105.1616,64.1507.9254,15.4784.7063,23.8846,3.2924,29.4788,5.4664a52.5743,52.5743,0,0,1,30.13,30.1293c2.174,5.5941,4.76,14,5.4664,29.4785.7637,16.74.9254,21.7614.9254,64.1507s-.1617,47.4105-.9254,64.1507c-.7063,15.4784-3.2924,23.8846-5.4664,29.4788a52.574,52.574,0,0,1-30.1293,30.13c-5.5942,2.174-14,4.76-29.4788,5.4665-16.7379.7637-21.7583.9253-64.1507.9253s-47.4127-.1616-64.1507-.9253c-15.4784-.7064-23.8846-3.2925-29.4788-5.4665a52.5748,52.5748,0,0,1-30.13-30.1292c-2.174-5.5943-4.76-14-5.4664-29.4786-.7638-16.74-.9254-21.7614-.9254-64.1507s.1616-47.4105.9254-64.1507c.7063-15.4784,3.2924-23.8847,5.4664-29.4788a52.5744,52.5744,0,0,1,30.1292-30.13c5.5942-2.174,14-4.76,29.4786-5.4664,16.74-.7638,21.7614-.9254,64.1507-.9254m0-28.6047c-43.1155,0-48.5218.1827-65.4547.9552-16.898.7711-28.438,3.4547-38.5365,7.3793a81.178,81.178,0,0,0-46.4293,46.43c-3.9246,10.0985-6.6082,21.6385-7.3793,38.5365-.7726,16.9329-.9552,22.3391-.9552,65.4547s.1826,48.5218.9552,65.4547c.7711,16.898,3.4547,28.438,7.3793,38.5364a81.1772,81.1772,0,0,0,46.43,46.43c10.0985,3.9247,21.6385,6.6083,38.5365,7.3793,16.9329.7728,22.3391.9553,65.4547.9553s48.5218-.1825,65.4547-.9553c16.898-.771,28.438-3.4546,38.5364-7.3793a81.1769,81.1769,0,0,0,46.43-46.43c3.9247-10.0984,6.6083-21.6384,7.3793-38.5364.7726-16.9329.9553-22.3392.9553-65.4547s-.1827-48.5218-.9553-65.4547c-.771-16.898-3.4546-28.4381-7.3793-38.5366a81.1776,81.1776,0,0,0-46.43-46.43c-10.0984-3.9246-21.6384-6.6082-38.5364-7.3794-16.9329-.7725-22.3392-.9551-65.4547-.9551Z" style="fill: #fff"/>
      <path d="M250,168.477A81.5232,81.5232,0,1,0,331.523,250,81.5232,81.5232,0,0,0,250,168.477Zm0,134.4414A52.9185,52.9185,0,1,1,302.9183,250v0A52.9187,52.9187,0,0,1,250,302.9187Z" style="fill: #fff"/>
      <circle cx="334.7439" cy="165.256" r="19.0507" style="fill: #fff"/>
    </g>
  </g>
</svg>
