<svg id="af5f8b1a-2176-4bcb-a4c8-70426b9720c5" xmlns="http://www.w3.org/2000/svg" viewBox="0 0 283.47 283.46">
<defs>
<style>.bfa87364-d332-439f-9980-c2abc47fa674{fill:#fbba00;}.ea851dcf-21aa-4fbf-b83e-b4d5efb6a86f{fill:#fff;}</style>
</defs>
<path class="bfa87364-d332-439f-9980-c2abc47fa674" d="M0,141.73V255.12a28.43,28.43,0,0,0,28.35,28.34H255.12a28.43,28.43,0,0,0,28.35-28.34V141.73Z"/>
<path d="M255.12,0H28.35A28.44,28.44,0,0,0,0,28.35V141.73H283.47V28.35A28.44,28.44,0,0,0,255.12,0Z"/>
<polygon points="252.71 179.04 230.02 179.04 230.02 213.67 179.11 213.67 214.34 157.72 187.89 157.72 149.02 220.1 149.02 236.03 230.02 236.03 230.02 261.25 252.71 261.25 252.71 179.04"/>
<path d="M53.47,231.19c0-7.61.74-7.68,3.87-8,6.87-.63,17.23-1.11,24.09-1.11,8.13,0,23.56-.82,33.55-2,11.28-1.3,17-11.19,17-29.41s-5.72-28-17-29.28a295.42,295.42,0,0,0-33.58-1.91,345.12,345.12,0,0,0-36,1.9c-1.85.16-7.3.92-9.46,1.3l-3.62.63,1.44,22.32,4.53-.84c2-.37,6.94-1.09,8.22-1.2l.15,0a329.92,329.92,0,0,1,34.73-1.85c6.87,0,17.23.48,24.1,1.11,3.33.31,3.76.35,3.76,7.59s-.65,7.43-3.76,7.72c-6.46.59-16.75,1.24-24.1,1.24-7.09,0-22.31.66-32.41,1.91-11.6,1.33-18.24,11.64-18.24,28.28v31.69h99.38V239.76H53.47Z"/>
<path class="ea851dcf-21aa-4fbf-b83e-b4d5efb6a86f" d="M206.67,98.25c0-15.25,9.62-19.61,24.67-19.61,9.82,0,18.34,1.69,21.78,3.08l-1.49,5.68a77.27,77.27,0,0,0-20.34-2.77c-12.31,0-17.49,2.77-17.49,13.52s5.38,13.67,17.74,13.67c6.23,0,13.16-1,15.3-1.74V99.17h6.33v15.31c-4.88,1.84-12,3.17-21.73,3.17C216.39,117.65,206.67,113.4,206.67,98.25Z"/>
<path class="ea851dcf-21aa-4fbf-b83e-b4d5efb6a86f" d="M199.83,116.88h-8.52l-15.06-13.25H159v13.25h-6.48V79.57h29.56c10,0,14.5,3.07,14.5,12,0,7.63-4,11.11-12.26,11.68ZM181.74,98.25c5.88,0,8.27-.77,8.27-6.45s-2.49-6.55-8.37-6.55H159v13Z"/>
<path class="ea851dcf-21aa-4fbf-b83e-b4d5efb6a86f" d="M90.52,103.88V79.57h6.63v23.54c0,7,4.94,8.6,16.35,8.6s16.34-1.33,16.34-8.49V79.57h6.38v24.21c0,11.06-8.82,13.77-22.82,13.77S90.52,115.09,90.52,103.88Z"/>
<path class="ea851dcf-21aa-4fbf-b83e-b4d5efb6a86f" d="M31.08,79.57H59.59C70.15,79.57,74,81.41,74,89.4c0,4.7-1.94,7.21-6.68,8.08,5.83.21,8.52,3.43,8.52,9,0,7.53-3.44,10.39-14.5,10.39H31.08ZM59.39,95.23c6,0,8.07-.31,8.07-5.07s-2-5-8.07-5H37.56V95.23Zm1.84,16.13c6,0,8.07-.57,8.07-5.38s-2.09-5.43-8.07-5.43H37.56v10.81Z"/>
<path class="ea851dcf-21aa-4fbf-b83e-b4d5efb6a86f" d="M207.05,60.08l34-26.52h-32.6V27.78h43v5.27L217.71,59.37H252.8V65.1H207.05Z"/>
<path class="ea851dcf-21aa-4fbf-b83e-b4d5efb6a86f" d="M152.53,27.78h6.58V59.37H192.6V65.1H152.53Z"/>
<path class="ea851dcf-21aa-4fbf-b83e-b4d5efb6a86f" d="M93.81,65.1h-7l23-37.58h7.13l23,37.58h-7.37L128,57.57H98.4Zm19.34-31.74L101.79,52h22.72Z"/>
<path class="ea851dcf-21aa-4fbf-b83e-b4d5efb6a86f" d="M31.08,63.2l1.2-5.42a92.9,92.9,0,0,0,22.07,2.56c14.76,0,15.95-1.23,15.95-5.53s-1.49-5.17-16.94-5.68c-17.69-.62-21.78-2.56-21.78-11.21,0-8.14,4.09-11,21.28-11,10,0,18.69,1.33,22.08,2.41l-1.25,5.42A109.35,109.35,0,0,0,53,32.44c-12.56,0-14.55.92-14.55,5.17s1.89,5.17,15.5,5.58c18.38.61,23.22,2.25,23.22,11.41,0,9-4.44,11.16-22.73,11.16C42.29,65.76,35.07,64.38,31.08,63.2Z"/>
</svg>