<svg xmlns="http://www.w3.org/2000/svg" viewBox="0 0 500 500">
  <g>
    <rect width="500" height="500" style="fill: #fff"/>
    <g>
      <path d="M216.8153,214.2528V200.6812a102.8591,102.8591,0,0,0-72.8678,186.2253,102.8855,102.8855,0,0,1,72.8678-172.6537Z" style="fill: #25f4ee"/>
      <path d="M219.2455,364.1166a47.5514,47.5514,0,0,0,47.2212-45.5355L266.68,94.7575l40.59.0152-.0628-.3363a77.8552,77.8552,0,0,1-1.32-14.1921H249.957l-.09,224.1447a46.908,46.908,0,0,1-68.7324,39.8438A47.2046,47.2046,0,0,0,219.2455,364.1166Z" style="fill: #25f4ee"/>
      <path d="M383.6973,171.1847V158.054a77.332,77.332,0,0,1-42.3735-12.6C352.1883,157.9326,366.9465,167.5987,383.6973,171.1847Z" style="fill: #25f4ee"/>
      <path d="M341.3238,145.4539a77.4562,77.4562,0,0,1-19.1353-51.0175H306.9506A78.3006,78.3006,0,0,0,341.3238,145.4539Z" style="fill: #fe2c55"/>
      <path d="M202.9431,255.1789c-25.9227,0-47.3254,21.5175-47.3254,47.4417a47.32,47.32,0,0,0,25.5171,41.6122,46.854,46.854,0,0,1,51.9834-72.2616V214.8735a102.7029,102.7029,0,0,0-13.8727-1.0055c-.8151,0-1.62.0428-2.43.0617l-.2152.0106-.1518,43.22A43.82,43.82,0,0,0,202.9431,255.1789Z" style="fill: #fe2c55"/>
      <path d="M383.6973,170.5145l-.26-.0506-.0131,43.1848a133.4525,133.4525,0,0,1-77.8817-25.29l.0173,114.2622a102.9242,102.9242,0,0,1-161.6121,84.2859,102.8768,102.8768,0,0,0,178.241-70.0938v-113.66A133.0173,133.0173,0,0,0,400,228.1751V172.246A77.7943,77.7943,0,0,1,383.6973,170.5145Z" style="fill: #fe2c55"/>
      <path d="M305.8861,302.6206v-113.66a133.0152,133.0152,0,0,0,77.8112,25.0226V170.5145a77.8415,77.8415,0,0,1-42.3735-25.0606,77.9614,77.9614,0,0,1-34.1172-51.0175H266.2594l-.09,224.1447a46.9221,46.9221,0,0,1-85.0348,25.6517,46.9914,46.9914,0,0,1,21.8083-88.6277,46.2857,46.2857,0,0,1,13.8722,2.1735V213.93a102.8456,102.8456,0,0,0-72.8678,172.9768,102.8615,102.8615,0,0,0,161.9386-84.2859Z"/>
    </g>
  </g>
</svg>
