<svg xmlns="http://www.w3.org/2000/svg" viewBox="0 0 500 500">
  <g>
    <rect width="500" height="500" style="fill: #1d9bf0"/>
    <path d="M202.8851,385.8227c114.1791,0,176.6188-94.5938,176.6188-176.6184,0-2.6883-.0546-5.3638-.1775-8.0252a126.2972,126.2972,0,0,0,30.9673-32.1407,123.9111,123.9111,0,0,1-35.6482,9.772,62.29,62.29,0,0,0,27.296-34.3382A124.4074,124.4074,0,0,1,362.526,159.54a62.13,62.13,0,0,0-105.7855,56.612,176.2326,176.2326,0,0,1-127.95-64.8555,62.123,62.123,0,0,0,19.2163,82.87,61.622,61.622,0,0,1-28.1149-7.7652c-.0136.259-.0136.5189-.0136.7913a62.102,62.102,0,0,0,49.8016,60.857,61.9756,61.9756,0,0,1-28.033,1.0638,62.1448,62.1448,0,0,0,57.99,43.1148A124.5619,124.5619,0,0,1,122.5393,358.8a126.3636,126.3636,0,0,1-14.808-.86,175.7383,175.7383,0,0,0,95.1538,27.8821" style="fill: #fff"/>
  </g>
</svg>
